<svg width="32" height="32" viewBox="0 0 32 32" fill="none" xmlns="http://www.w3.org/2000/svg">
<circle cx="16" cy="16" r="15.5" fill="#E0E9EE" stroke="#E0E9EE"/>
<path d="M16.2761 21.14C15.5854 21.14 14.9088 21.042 14.2461 20.846C13.5928 20.6407 13.0421 20.3607 12.5941 20.006L13.3641 18.592C13.7188 18.8813 14.1481 19.1147 14.6521 19.292C15.1654 19.4693 15.6974 19.558 16.2481 19.558C16.8921 19.558 17.3961 19.4227 17.7601 19.152C18.1334 18.8813 18.3201 18.5173 18.3201 18.06C18.3201 17.752 18.2408 17.4813 18.0821 17.248C17.9328 17.0147 17.6621 16.8373 17.2701 16.716C16.8874 16.5947 16.3601 16.534 15.6881 16.534H13.3221L13.8261 11.2H19.5801V12.726H14.4981L15.4501 11.858L15.0721 15.848L14.1201 14.994H16.0941C17.0648 14.994 17.8441 15.1247 18.4321 15.386C19.0294 15.638 19.4634 15.9927 19.7341 16.45C20.0141 16.898 20.1541 17.4113 20.1541 17.99C20.1541 18.5593 20.0141 19.082 19.7341 19.558C19.4541 20.034 19.0248 20.4167 18.4461 20.706C17.8768 20.9953 17.1534 21.14 16.2761 21.14Z" fill="#004B74"/>
</svg>
