<svg width="32" height="32" viewBox="0 0 32 32" fill="none" xmlns="http://www.w3.org/2000/svg">
<circle cx="16" cy="16" r="15.5" fill="#E0E9EE" stroke="#E0E9EE"/>
<path d="M17.1793 14.952C17.8233 14.952 18.402 15.078 18.9153 15.33C19.4287 15.5727 19.83 15.9227 20.1193 16.38C20.4087 16.8373 20.5533 17.3647 20.5533 17.962C20.5533 18.5967 20.3947 19.1567 20.0773 19.642C19.76 20.118 19.3307 20.4867 18.7893 20.748C18.248 21.0093 17.6413 21.14 16.9693 21.14C15.6253 21.14 14.58 20.72 13.8333 19.88C13.096 19.04 12.7273 17.836 12.7273 16.268C12.7273 15.1667 12.928 14.2287 13.3293 13.454C13.7307 12.67 14.2907 12.0773 15.0093 11.676C15.7373 11.2653 16.5773 11.06 17.5293 11.06C18.0333 11.06 18.5047 11.116 18.9433 11.228C19.3913 11.3307 19.7787 11.4847 20.1053 11.69L19.4333 13.062C18.948 12.7447 18.3273 12.586 17.5713 12.586C16.6287 12.586 15.8913 12.8753 15.3593 13.454C14.8273 14.0327 14.5613 14.868 14.5613 15.96V15.974C14.8507 15.638 15.2193 15.386 15.6673 15.218C16.1153 15.0407 16.6193 14.952 17.1793 14.952ZM16.8713 19.712C17.4407 19.712 17.9027 19.5627 18.2573 19.264C18.612 18.956 18.7893 18.55 18.7893 18.046C18.7893 17.5327 18.612 17.1267 18.2573 16.828C17.9027 16.5293 17.4267 16.38 16.8293 16.38C16.2413 16.38 15.7607 16.5387 15.3873 16.856C15.0233 17.1733 14.8413 17.5747 14.8413 18.06C14.8413 18.536 15.0187 18.9327 15.3733 19.25C15.7373 19.558 16.2367 19.712 16.8713 19.712Z" fill="#004B74"/>
</svg>
