<svg width="32" height="32" viewBox="0 0 32 32" fill="none" xmlns="http://www.w3.org/2000/svg">
<circle cx="16" cy="16" r="15.5" fill="#E0E9EE" stroke="#E0E9EE"/>
<path d="M17.2138 15.246C18.1191 15.358 18.8098 15.666 19.2858 16.17C19.7618 16.674 19.9998 17.304 19.9998 18.06C19.9998 18.6293 19.8551 19.1473 19.5658 19.614C19.2764 20.0807 18.8378 20.454 18.2498 20.734C17.6711 21.0047 16.9618 21.14 16.1218 21.14C15.4218 21.14 14.7451 21.042 14.0918 20.846C13.4478 20.6407 12.8971 20.3607 12.4398 20.006L13.2238 18.592C13.5784 18.8907 14.0078 19.1287 14.5118 19.306C15.0251 19.474 15.5524 19.558 16.0938 19.558C16.7378 19.558 17.2418 19.4273 17.6058 19.166C17.9791 18.8953 18.1658 18.5313 18.1658 18.074C18.1658 17.6167 17.9884 17.262 17.6338 17.01C17.2884 16.7487 16.7564 16.618 16.0378 16.618H15.1418V15.372L17.3678 12.726H12.9158V11.2H19.5938V12.418L17.2138 15.246Z" fill="#004B74"/>
</svg>
