<svg width="32" height="32" viewBox="0 0 32 32" fill="none" xmlns="http://www.w3.org/2000/svg">
<circle cx="16" cy="16" r="15.5" fill="#E0E9EE" stroke="#E0E9EE"/>
<path d="M20.1398 19.46V21H12.9158V19.782L16.8078 16.086C17.2464 15.666 17.5404 15.302 17.6898 14.994C17.8484 14.6767 17.9278 14.364 17.9278 14.056C17.9278 13.5987 17.7738 13.2487 17.4658 13.006C17.1578 12.7633 16.7051 12.642 16.1078 12.642C15.1091 12.642 14.3438 12.9827 13.8118 13.664L12.5378 12.684C12.9204 12.1707 13.4338 11.774 14.0778 11.494C14.7311 11.2047 15.4591 11.06 16.2618 11.06C17.3258 11.06 18.1751 11.312 18.8098 11.816C19.4444 12.32 19.7618 13.006 19.7618 13.874C19.7618 14.406 19.6498 14.9053 19.4258 15.372C19.2018 15.8387 18.7724 16.3707 18.1378 16.968L15.5198 19.46H20.1398Z" fill="#004B74"/>
</svg>
