<svg id="Layer_1" data-name="Layer 1" xmlns="http://www.w3.org/2000/svg" width="52" height="52" viewBox="0 0 52 52"><defs><style>.cls-1{fill:none;stroke:#ff7313;stroke-linecap:round;stroke-linejoin:round;stroke-width:3px;}</style></defs><path d="M32.94,49.83a1.08,1.08,0,0,1-1.41.38l-4.85-2.55a2.16,2.16,0,0,0-1.76,0l-4.85,2.55a1.08,1.08,0,0,1-1.41-.38L15.74,45.2a2.17,2.17,0,0,0-1.54-.88L8.74,44.1a1.1,1.1,0,0,1-1-1L7.48,37.6a2.17,2.17,0,0,0-.88-1.54L2,33.14a1.08,1.08,0,0,1-.38-1.41l2.55-4.85a2.16,2.16,0,0,0,0-1.76L1.59,20.27A1.08,1.08,0,0,1,2,18.86l4.62-2.92a2.15,2.15,0,0,0,.89-1.54L7.7,8.94a1.1,1.1,0,0,1,1-1l5.46-.22a2.17,2.17,0,0,0,1.54-.88l2.92-4.63a1.08,1.08,0,0,1,1.41-.38l4.85,2.55a2.16,2.16,0,0,0,1.76,0l4.85-2.55a1.08,1.08,0,0,1,1.41.38L35.86,6.8a2.17,2.17,0,0,0,1.54.88l5.46.22a1.1,1.1,0,0,1,1,1l.22,5.46A2.17,2.17,0,0,0,45,15.94l4.63,2.92A1.08,1.08,0,0,1,50,20.27l-2.55,4.85a2.16,2.16,0,0,0,0,1.76L50,31.73a1.08,1.08,0,0,1-.38,1.41L45,36.06a2.15,2.15,0,0,0-.89,1.54l-.22,5.46a1.1,1.1,0,0,1-1,1l-5.46.22a2.17,2.17,0,0,0-1.54.88Zm-8-5.56a2.08,2.08,0,0,1,1.76,0l3.79,2a1.1,1.1,0,0,0,1.42-.37l2.28-3.62a2.14,2.14,0,0,1,1.53-.89L40,41.21a1.1,1.1,0,0,0,1-1l.17-4.27a2.14,2.14,0,0,1,.89-1.53l3.62-2.28a1.12,1.12,0,0,0,.38-1.42l-2-3.79a2.08,2.08,0,0,1,0-1.76l2-3.79a1.1,1.1,0,0,0-.38-1.42l-3.61-2.28a2.17,2.17,0,0,1-.89-1.53L41,11.83a1.1,1.1,0,0,0-1-1l-4.27-.17a2.14,2.14,0,0,1-1.53-.89L31.89,6.11a1.1,1.1,0,0,0-1.42-.37l-3.79,2a2.08,2.08,0,0,1-1.76,0l-3.79-2a1.1,1.1,0,0,0-1.42.37L17.43,9.73a2.14,2.14,0,0,1-1.53.89l-4.27.17a1.1,1.1,0,0,0-1,1l-.17,4.27a2.14,2.14,0,0,1-.89,1.53L5.91,19.91a1.12,1.12,0,0,0-.38,1.42l2,3.79a2.08,2.08,0,0,1,0,1.76l-2,3.79a1.1,1.1,0,0,0,.38,1.42l3.61,2.28a2.17,2.17,0,0,1,.89,1.53l.17,4.27a1.1,1.1,0,0,0,1,1l4.27.17a2.14,2.14,0,0,1,1.53.89l2.28,3.62a1.1,1.1,0,0,0,1.42.37Z"/><polyline class="cls-1" points="17 25.56 23.29 31.85 35 20.15"/></svg>