<svg id="Layer_1" data-name="Layer 1" xmlns="http://www.w3.org/2000/svg" width="52" height="52" viewBox="0 0 52 52"><defs><style>.cls-1,.cls-2{fill:none;stroke-miterlimit:10;}.cls-1{stroke:#000;stroke-width:3px;}.cls-2{stroke:#ff7313;stroke-width:2px;}.cls-3{fill:#ff7313;}</style></defs><path class="cls-1" d="M43.3,32.08v-12a17,17,0,0,0-17-17h0a17,17,0,0,0-17,17V31.58c0,7.08,4.34,11.45,10.5,13.16"/><rect class="cls-1" x="20.3" y="42.57" width="11" height="6" rx="3"/><path class="cls-1" d="M43.3,19.58h1a6,6,0,0,1,6,6v2a5,5,0,0,1-5,5h-2a0,0,0,0,1,0,0v-13A0,0,0,0,1,43.3,19.58Z"/><path class="cls-1" d="M3.3,19.58h0a6,6,0,0,1,6,6v2a5,5,0,0,1-5,5h-1a1,1,0,0,1-1-1v-11A1,1,0,0,1,3.3,19.58Z" transform="translate(11.6 52.15) rotate(-180)"/><path class="cls-2" d="M36.6,21.25a10.31,10.31,0,0,1-13.8,9.69l-6.35,3,1.66-6.42A10.3,10.3,0,1,1,36.6,21.25Z"/><circle class="cls-3" cx="21.3" cy="21.57" r="1.5"/><circle class="cls-3" cx="26.3" cy="21.57" r="1.5"/><circle class="cls-3" cx="31.3" cy="21.57" r="1.5"/></svg>