<svg id="Layer_1" data-name="Layer 1" xmlns="http://www.w3.org/2000/svg" width="52" height="52" viewBox="0 0 52 52"><defs><style>.cls-1{fill:none;stroke:#000;stroke-linejoin:round;stroke-width:3px;}.cls-2{fill:#ff7313;}</style></defs><polyline class="cls-1" points="19.5 22 19.5 28.5 19.5 21.5 26.08 21.5 14.5 4.39 2.92 21.5 9.5 21.5 9.5 48.44 9.5 22"/><polyline class="cls-1" points="43.5 33 43.5 48.95 43.5 32.5 49.42 32.5 39 19.51 28.57 32.5 34.5 32.5 34.5 48.95 34.5 33"/><path class="cls-2" d="M23.88,46.59A4.77,4.77,0,0,1,21,48v2H19V48.07a10.16,10.16,0,0,1-2.37-.47,6.51,6.51,0,0,1-1.85-.91l1.09-2.64a6.52,6.52,0,0,0,1.81.9,6.43,6.43,0,0,0,2,.35c1.26,0,1.9-.35,1.9-1a.86.86,0,0,0-.54-.81,9.94,9.94,0,0,0-1.75-.55,14.72,14.72,0,0,1-2.2-.66,3.67,3.67,0,0,1-1.51-1.13A3.25,3.25,0,0,1,15,39a3.82,3.82,0,0,1,1-2.67A4.76,4.76,0,0,1,19,35V33h2v2a9.26,9.26,0,0,1,1.83.36,6.7,6.7,0,0,1,1.55.71l-1,2.66a6.41,6.41,0,0,0-3.24-1A2.54,2.54,0,0,0,18.7,38a1,1,0,0,0-.45.82.82.82,0,0,0,.53.76,9.76,9.76,0,0,0,1.72.53,14.19,14.19,0,0,1,2.21.66,3.74,3.74,0,0,1,1.52,1.12A3.2,3.2,0,0,1,24.87,44,3.73,3.73,0,0,1,23.88,46.59Z"/></svg>