<svg id="Layer_1" data-name="Layer 1" xmlns="http://www.w3.org/2000/svg" width="52" height="52" viewBox="0 0 52 52"><defs><style>.cls-1,.cls-2{fill:none;stroke-linecap:round;stroke-miterlimit:10;stroke-width:3px;}.cls-1{stroke:#000;}.cls-2{stroke:#ff7313;}</style></defs><path d="M26.2,3h.43a23,23,0,0,1-.41,46h-.43A23,23,0,0,1,3.21,25.58,23.11,23.11,0,0,1,26.2,3m0-3a26,26,0,0,0-.47,52h.49a26,26,0,0,0,.46-52Z"/><line class="cls-1" x1="20.2" y1="7.5" x2="32.2" y2="7.5"/><line class="cls-1" x1="20.2" y1="43.5" x2="32.2" y2="43.5"/><line class="cls-1" x1="16.2" y1="13.5" x2="36.2" y2="13.5"/><rect class="cls-2" x="11.2" y="30.5" width="30" height="7" rx="2"/><rect class="cls-2" x="11.2" y="18.5" width="30" height="7" rx="2"/></svg>