<svg id="Layer_1" data-name="Layer 1" xmlns="http://www.w3.org/2000/svg" width="128" height="128" viewBox="0 0 128 128"><defs><style>.cls-1,.cls-2{fill:none;stroke-linecap:round;stroke-width:3px;}.cls-1{stroke:#004b74;stroke-miterlimit:10;}.cls-2{stroke:#000;stroke-linejoin:round;}.cls-3{fill:#ff7313;}</style></defs><path class="cls-1" d="M117.3,69.48a52.22,52.22,0,0,0,.28-5.48A53.59,53.59,0,0,0,20.09,33.28c-.71,1-1.39,2.06-2,3.13"/><polyline class="cls-1" points="126.56 61.14 117.29 69.48 108.96 60.21"/><path class="cls-1" d="M11.62,52.69c-.38,1.77-.67,3.58-.88,5.41a53.58,53.58,0,0,0,93.52,41.26q1.23-1.39,2.37-2.88"/><polyline class="cls-1" points="1.5 59.95 11.63 52.69 18.89 62.82"/><path class="cls-1" d="M64,117.58A53.59,53.59,0,0,0,112.64,86.5"/><g id="power_pole" data-name="power pole"><g id="power_pole-2" data-name="power pole"><polyline class="cls-2" points="55.01 68.7 42.09 99.5 72.99 68.7"/><polyline class="cls-2" points="72.99 68.7 85.91 99.5 55.01 68.7"/><polygon class="cls-2" points="55.19 42.11 64.2 28.5 73.21 42.11 73.21 68.51 55.19 68.51 55.19 42.11"/><line class="cls-2" x1="55.19" y1="42.47" x2="72.81" y2="42.47"/><polyline class="cls-2" points="72.99 42.29 90.06 51.28 72.81 51.28"/><line class="cls-2" x1="81.62" y1="51.28" x2="81.62" y2="57.29"/><line class="cls-2" x1="90.04" y1="51.28" x2="90.04" y2="57.29"/><polyline class="cls-2" points="55.01 42.29 37.94 51.28 55.19 51.28"/><line class="cls-2" x1="46.38" y1="51.28" x2="46.38" y2="57.29"/><line class="cls-2" x1="37.96" y1="51.28" x2="37.96" y2="57.29"/></g></g><polygon class="cls-3" points="65.95 45.96 59.57 56.59 62.76 56.59 61.7 64.04 68.43 53.41 64.89 53.41 65.95 45.96"/></svg>