<svg id="Layer_1" data-name="Layer 1" xmlns="http://www.w3.org/2000/svg" width="128" height="128" viewBox="0 0 128 128"><defs><style>.cls-1{fill:none;stroke:#000;stroke-miterlimit:10;stroke-width:3px;}.cls-2{fill:#ff7313;}.cls-3{fill:#004b74;}.cls-4{fill:#fff;}</style></defs><path d="M126.12,114.44l-9-9a1.5,1.5,0,0,0-2.12,2.12l6.44,6.44H15V8.63l6.43,6.43a1.51,1.51,0,0,0,1.06.44,1.5,1.5,0,0,0,1.06-2.56l-9-9a1.55,1.55,0,0,0-2.12,0l-9,9a1.5,1.5,0,0,0,2.12,2.12L12,8.6V117H121.44L115,123.44a1.49,1.49,0,0,0,0,2.12,1.5,1.5,0,0,0,2.12,0l9-9A1.49,1.49,0,0,0,126.12,114.44Z"/><polyline class="cls-1" points="30.5 32.8 58.75 54.38 80.58 37.95 107.9 56.5"/><rect class="cls-2" x="33.1" y="49.34" width="7.2" height="37.89"/><rect class="cls-2" x="76.52" y="53.16" width="7.2" height="34.06"/><rect class="cls-3" x="54.25" y="63.82" width="7.2" height="23.4"/><rect class="cls-3" x="98.35" y="63.82" width="7.2" height="23.4"/><line class="cls-1" x1="14.4" y1="100.5" x2="20.05" y2="100.5"/><line class="cls-1" x1="14.4" y1="86.25" x2="20.05" y2="86.25"/><line class="cls-1" x1="14.4" y1="72" x2="20.05" y2="72"/><line class="cls-1" x1="14.4" y1="57.75" x2="20.05" y2="57.75"/><line class="cls-1" x1="14.4" y1="43.5" x2="20.05" y2="43.5"/><line class="cls-1" x1="14.4" y1="29.25" x2="20.05" y2="29.25"/><line class="cls-1" x1="99.95" y1="114.6" x2="99.95" y2="108.95"/><line class="cls-1" x1="85.7" y1="114.6" x2="85.7" y2="108.95"/><line class="cls-1" x1="71.45" y1="114.6" x2="71.45" y2="108.95"/><line class="cls-1" x1="57.2" y1="114.6" x2="57.2" y2="108.95"/><line class="cls-1" x1="42.95" y1="114.6" x2="42.95" y2="108.95"/><line class="cls-1" x1="28.7" y1="114.6" x2="28.7" y2="108.95"/><circle class="cls-4" cx="20" cy="109" r="13.5"/><path class="cls-2" d="M20,97A12,12,0,1,1,8,109,12,12,0,0,1,20,97m0-3a15,15,0,1,0,15,15A15,15,0,0,0,20,94Z"/><polygon class="cls-2" points="22.22 100 15.29 110.38 19.74 110.38 17.81 118 24.71 107.83 20.39 107.83 22.22 100"/></svg>