<svg id="Layer_1" data-name="Layer 1" xmlns="http://www.w3.org/2000/svg" width="52" height="52" viewBox="0 0 52 52"><defs><style>.cls-1,.cls-3{fill:none;stroke-miterlimit:10;}.cls-1{stroke:#000;stroke-width:3px;}.cls-2{fill:#ff7313;}.cls-3{stroke:#ff7313;stroke-linecap:round;stroke-width:2px;}</style></defs><path d="M38,3a1,1,0,0,1,1,1V48a1,1,0,0,1-1,1H14a1,1,0,0,1-1-1V4a1,1,0,0,1,1-1H38m0-3H14a4,4,0,0,0-4,4V48a4,4,0,0,0,4,4H38a4,4,0,0,0,4-4V4a4,4,0,0,0-4-4Z"/><line class="cls-1" x1="41.31" y1="43.6" x2="10.69" y2="43.6"/><line class="cls-1" x1="41.31" y1="8.6" x2="10.69" y2="8.6"/><circle class="cls-2" cx="33.5" cy="35.5" r="1.5"/><circle class="cls-2" cx="21.5" cy="35.5" r="1.5"/><polyline class="cls-3" points="35 31 20.73 31 17.9 17 16 17"/><path class="cls-3" d="M22,19H35a.91.91,0,0,1,.88,1.1L34.5,26.3a.9.9,0,0,1-.88.7H20"/></svg>