<svg id="Layer_1" data-name="Layer 1" xmlns="http://www.w3.org/2000/svg" width="52" height="52" viewBox="0 0 52 52"><defs><style>.cls-1{fill:#ff7313;}</style></defs><path class="cls-1" d="M16.5,3A13.5,13.5,0,1,1,3,16.5,13.52,13.52,0,0,1,16.5,3m0-3A16.5,16.5,0,1,0,33,16.5,16.5,16.5,0,0,0,16.5,0Z"/><path d="M14.09,18.49H9.54l-.87,2.1H6.34l4.37-9.8H13l4.38,9.8H15Zm-.72-1.72L11.82,13l-1.56,3.76Z"/><path d="M25.1,16.54H22.67v2.38H20.86V16.54H18.44V14.83h2.42V12.45h1.81v2.38H25.1Z"/><path class="cls-1" d="M39.5,30A9.5,9.5,0,1,1,30,39.5,9.51,9.51,0,0,1,39.5,30m0-3A12.5,12.5,0,1,0,52,39.5,12.5,12.5,0,0,0,39.5,27Z"/><path d="M41.26,41.27H37.19l-.77,1.88H34.34l3.9-8.75h2l3.92,8.75H42Zm-.64-1.53-1.39-3.35-1.39,3.35Z"/></svg>