<svg id="Layer_1" data-name="Layer 1" xmlns="http://www.w3.org/2000/svg" width="128" height="128" viewBox="0 0 128 128"><defs><style>.cls-1,.cls-2,.cls-5{fill:none;stroke-width:3px;}.cls-1,.cls-2{stroke:#000;stroke-miterlimit:10;}.cls-2,.cls-5{stroke-linecap:round;}.cls-3{fill:#fff;}.cls-4{fill:#ff7313;}.cls-5{stroke:#ff7313;stroke-linejoin:round;}.cls-6{fill:#004b74;}</style></defs><circle class="cls-1" cx="99.81" cy="107.91" r="8.09"/><circle class="cls-1" cx="52.53" cy="107.91" r="8.09"/><polyline class="cls-2" points="104.16 92.36 51.98 92.36 31.31 23.93 12.1 23.93"/><path class="cls-2" d="M34.49,33.89h78.92a2.49,2.49,0,0,1,2.4,3.16L104.87,75.62a2.48,2.48,0,0,1-2.39,1.81H48.18"/><path class="cls-3" d="M75.07,55A23.24,23.24,0,1,1,98.3,31.73,23.27,23.27,0,0,1,75.07,55Z"/><path class="cls-4" d="M75.07,10A21.74,21.74,0,1,1,53.33,31.73,21.76,21.76,0,0,1,75.07,10m0-3A24.74,24.74,0,1,0,99.8,31.73,24.74,24.74,0,0,0,75.07,7Z"/><polyline class="cls-5" points="63.61 30.81 71.86 39.07 86.53 24.4"/><path class="cls-6" d="M46.29,61l4.43,13.28H99.91a2.23,2.23,0,0,0,2.17-1.55L105.61,61Z"/></svg>