<svg id="Layer_1" data-name="Layer 1" xmlns="http://www.w3.org/2000/svg" width="52" height="52" viewBox="0 0 52 52"><defs><style>.cls-1{fill:none;stroke:#ff7313;stroke-linecap:round;stroke-miterlimit:10;stroke-width:2px;}.cls-2{fill:#ff7313;}</style></defs><path d="M46,6a3,3,0,0,1,3,3V37a3,3,0,0,1-3,3H15.06l-.83.69L10,44.19V40H6a3,3,0,0,1-3-3V9A3,3,0,0,1,6,6H46m0-3H6A6,6,0,0,0,0,9V37a6,6,0,0,0,6,6H7v7.57L16.14,43H46a6,6,0,0,0,6-6V9a6,6,0,0,0-6-6Z"/><line class="cls-1" x1="26" y1="9" x2="26" y2="36"/><line class="cls-1" x1="31" y1="36" x2="21" y2="36"/><polygon class="cls-2" points="16.1 14 18.99 14 33.01 14 35.9 14 35.08 12 33.83 12 18.17 12 16.92 12 16.1 14"/><path class="cls-2" d="M40.58,25.5,35.9,14l-.82-2H33.83L33,14,28.33,25.5a4.45,4.45,0,0,0-.15.87,4.18,4.18,0,0,0,.09,1.13,6.63,6.63,0,0,0,6.19,5,6.61,6.61,0,0,0,6.18-5,3.75,3.75,0,0,0-.06-2Zm-6.12-9.24,4,9.74H30.49Zm0,14.58A4.51,4.51,0,0,1,30.4,28h8.11A4.5,4.5,0,0,1,34.46,30.84Z"/><path class="cls-2" d="M23.67,25.5,19,14l-.82-2H16.92l-.42,1-.4,1L11.42,25.5a3.75,3.75,0,0,0-.06,2,6.61,6.61,0,0,0,6.18,5,6.63,6.63,0,0,0,6.19-5,4.18,4.18,0,0,0,.09-1.13A4.45,4.45,0,0,0,23.67,25.5Zm-6.13-9.24,4,9.74H13.58Zm0,14.58a4.5,4.5,0,0,1-4-2.84H21.6A4.51,4.51,0,0,1,17.54,30.84Z"/></svg>