<svg id="Layer_1" data-name="Layer 1" xmlns="http://www.w3.org/2000/svg" xmlns:xlink="http://www.w3.org/1999/xlink" width="52" height="52" viewBox="0 0 52 52"><defs><style>.cls-1,.cls-3{fill:none;}.cls-2{clip-path:url(#clip-path);}.cls-3{stroke:#000;stroke-miterlimit:10;stroke-width:3px;}.cls-4{fill:#ff7313;}.cls-5{fill:#fff;}</style><clipPath id="clip-path"><rect class="cls-1" width="52" height="52"/></clipPath></defs><g class="cls-2"><path d="M22.19,47.52v.63a3.81,3.81,0,0,0,7.62.19v-.82Z"/><path class="cls-3" d="M27.09,48.07H24.35a5.42,5.42,0,0,1-5.42-5.42v-5c0-6.11-4.93-11.78-4.93-11.78a15.59,15.59,0,0,1-2.52-10.64A14.9,14.9,0,0,1,24.33,2.1c8.84-1,16.31,6.13,16.31,15.08A15.46,15.46,0,0,1,38,25.88s-4.93,5.67-4.93,11.78v5a5.42,5.42,0,0,1-5.42,5.42H24.91"/><line class="cls-3" x1="33.61" y1="41.54" x2="18.39" y2="41.54"/><line class="cls-3" x1="33.61" y1="36.11" x2="18.39" y2="36.11"/><line class="cls-3" x1="40.14" y1="24.15" x2="12.95" y2="24.15"/><path class="cls-3" d="M33.83,23.92s-5.12,5.68-5.12,11.79"/><path class="cls-3" d="M18.75,23.92s5.12,5.68,5.12,11.79"/><rect class="cls-4" x="23" y="20" width="29" height="14" rx="7"/><path class="cls-5" d="M26.91,23.55h2V29h3.34v1.57H26.91Z"/><path class="cls-5" d="M39.13,29v1.53H33.51v-7H39v1.53H35.47v1.18h3.11v1.48H35.47V29Z"/><path class="cls-5" d="M40.73,23.55H44a4.57,4.57,0,0,1,2,.43,3.21,3.21,0,0,1,1.38,1.22A3.38,3.38,0,0,1,48,27.05a3.43,3.43,0,0,1-.49,1.85,3.35,3.35,0,0,1-1.38,1.22,4.71,4.71,0,0,1-2,.43H40.73ZM44,29a2,2,0,0,0,1.44-.51,2.08,2.08,0,0,0,0-2.82A2,2,0,0,0,44,25.13H42.71V29Z"/></g></svg>