<svg id="Layer_1" data-name="Layer 1" xmlns="http://www.w3.org/2000/svg" width="52" height="52" viewBox="0 0 52 52"><defs><style>.cls-1{fill:#ff7313;}</style></defs><path d="M32.18,48.25l0,0a11.69,11.69,0,0,1-1-.78,11.55,11.55,0,0,1-.84-.88A21.34,21.34,0,0,1,26,47,21,21,0,1,1,47,26a20.68,20.68,0,0,1-.46,4.34l.29.23a12,12,0,0,1,1,1.11l.21.27a10.9,10.9,0,0,1,.84,1.21A24,24,0,1,0,33.18,48.91,10.79,10.79,0,0,1,32.18,48.25Z"/><path class="cls-1" d="M39,29a10,10,0,1,1-7.33,3.19A10,10,0,0,1,39,29m0-3a13,13,0,1,0,8.85,3.48A12.93,12.93,0,0,0,39,26Z"/><path class="cls-1" d="M42.53,43a4.11,4.11,0,0,1-2.41,1.09v1.55H38.44v-1.5a9,9,0,0,1-2-.35,6,6,0,0,1-1.56-.71l.91-2a5.66,5.66,0,0,0,1.53.7A5.75,5.75,0,0,0,39,42c1.06,0,1.59-.27,1.59-.8a.66.66,0,0,0-.45-.62,7.9,7.9,0,0,0-1.46-.43,14.21,14.21,0,0,1-1.85-.51,3.11,3.11,0,0,1-1.28-.87,2.4,2.4,0,0,1-.53-1.63,2.79,2.79,0,0,1,.87-2.06A4.1,4.1,0,0,1,38.44,34V32.47h1.68V34a8.44,8.44,0,0,1,1.53.28,5.38,5.38,0,0,1,1.31.55l-.86,2.06a5.64,5.64,0,0,0-2.71-.76,2.25,2.25,0,0,0-1.21.25.72.72,0,0,0-.37.63.64.64,0,0,0,.44.59A8.07,8.07,0,0,0,39.7,38a12.78,12.78,0,0,1,1.85.51,3.15,3.15,0,0,1,1.27.87A2.29,2.29,0,0,1,43.36,41,2.73,2.73,0,0,1,42.53,43Z"/><path d="M23.43,26.12,15.5,30.34a1.5,1.5,0,0,0,.7,2.83,1.53,1.53,0,0,0,.71-.18l8.14-4.33A3,3,0,0,1,23.43,26.12Z"/><path d="M26.41,24a2,2,0,1,1-2,2,2,2,0,0,1,2-2m0-2a4,4,0,1,0,4,4,4,4,0,0,0-4-4Z"/><path d="M26.5,23a2.94,2.94,0,0,1,1.5.42V11.5a1.5,1.5,0,0,0-3,0V23.42A2.94,2.94,0,0,1,26.5,23Z"/></svg>