<svg id="Layer_1" data-name="Layer 1" xmlns="http://www.w3.org/2000/svg" width="52" height="52" viewBox="0 0 52 52"><defs><style>.cls-1{fill:#ff7313;}.cls-2{fill:none;stroke:#ff7313;stroke-miterlimit:10;stroke-width:3px;}</style></defs><path d="M26,11.24A58.38,58.38,0,0,0,37,15.5V30.32c-.44,1.34-4.16,6-11,10.4-6.84-4.35-10.56-9.06-11-10.4V15.5a58.38,58.38,0,0,0,11-4.26M26,8a1.51,1.51,0,0,0-.77.21c-1.41.84-4.94,2.64-12.16,4.71A1.44,1.44,0,0,0,12,14.31V30.49c0,2.18,5.11,8.33,13.21,13.27a1.53,1.53,0,0,0,1.58,0C34.89,38.82,40,32.67,40,30.49V14.31a1.44,1.44,0,0,0-1.07-1.37c-7.22-2.07-10.75-3.87-12.16-4.71A1.51,1.51,0,0,0,26,8Z"/><path d="M30,29.89a5,5,0,0,1-3,1.24v1.92H25V31.19a10.2,10.2,0,0,1-2.13-.45A6.14,6.14,0,0,1,21,29.82L22,27.73a5.91,5.91,0,0,0,1.52.8,8.42,8.42,0,0,0,1.52.41V26.09c-.53-.2-1.21-.42-1.77-.66a3.68,3.68,0,0,1-1.41-1.05,2.84,2.84,0,0,1-.56-1.84,3.3,3.3,0,0,1,1-2.44A4.9,4.9,0,0,1,25,18.86V17.05h2v1.78a7.52,7.52,0,0,1,3.47,1L29.61,22A6.76,6.76,0,0,0,27,21.09V24a12.54,12.54,0,0,1,2,.62,3.55,3.55,0,0,1,1.4,1.05A2.82,2.82,0,0,1,31,27.49,3.24,3.24,0,0,1,30,29.89Zm-5.9-6.78a2.83,2.83,0,0,0,.94.46V21.14a1.82,1.82,0,0,0-1,.49,1.12,1.12,0,0,0-.31.77A.89.89,0,0,0,24.06,23.11Zm3.86,5.32a1,1,0,0,0,.31-.74.88.88,0,0,0-.31-.7,3,3,0,0,0-.92-.48v2.37A1.85,1.85,0,0,0,27.92,28.43Z"/><path class="cls-1" d="M26,3.05a23,23,0,1,1-23,23,23,23,0,0,1,23-23m0-3a26,26,0,1,0,26,26,26,26,0,0,0-26-26Z"/><line class="cls-2" x1="43.5" y1="8.4" x2="8.5" y2="43.4"/></svg>