<svg id="Layer_1" data-name="Layer 1" xmlns="http://www.w3.org/2000/svg" width="52" height="52" viewBox="0 0 52 52"><defs><style>.cls-1,.cls-3{fill:none;stroke-linecap:round;stroke-miterlimit:10;}.cls-1{stroke:#000;stroke-width:3px;}.cls-2{fill:#ff7313;}.cls-3{stroke:#ff7313;stroke-width:2px;}</style></defs><path class="cls-1" d="M19.5,6.5h-4a2,2,0,0,0-2,1.91V43.59a2,2,0,0,0,2,1.91h4"/><path class="cls-2" d="M26,5.3,41,8.87V43.13L26,46.7V5.3M25,2a2,2,0,0,0-2,2V48a2,2,0,0,0,2,2,1.82,1.82,0,0,0,.46-.06l17-4A2,2,0,0,0,44,43.92V8.08a2,2,0,0,0-1.54-1.95l-17-4A1.82,1.82,0,0,0,25,2Z"/><line class="cls-3" x1="29" y1="24" x2="29" y2="29"/></svg>