<svg id="Layer_1" data-name="Layer 1" xmlns="http://www.w3.org/2000/svg" width="52" height="52" viewBox="0 0 52 52"><defs><style>.cls-1{fill:#ff7313;}</style></defs><path d="M26,4.06c2.32,1.36,7.15,3.75,16,6.42v22c-.28,1.75-5.55,9.12-16,15.85-10.45-6.73-15.72-14.1-16-15.85v-22c8.85-2.67,13.68-5.06,16-6.42M26,.89a2,2,0,0,0-1.05.3C23,2.38,18.24,4.91,8.43,7.82A2,2,0,0,0,7,9.73V32.51c0,3.07,6.94,11.74,17.94,18.68a2,2,0,0,0,2.12,0C38.06,44.25,45,35.58,45,32.51V9.73a2,2,0,0,0-1.43-1.91C33.76,4.91,29,2.38,27.05,1.19A2,2,0,0,0,26,.89Z"/><path class="cls-1" d="M31.54,31.46a6.94,6.94,0,0,1-4.15,1.74v2.69H25V33.27a13,13,0,0,1-3.38-.62A8.46,8.46,0,0,1,19,31.35l1.32-2.93a8.42,8.42,0,0,0,2.13,1.13,9.61,9.61,0,0,0,2.52.58v-4a19,19,0,0,1-2.88-.91,5.16,5.16,0,0,1-2-1.48,4,4,0,0,1-.79-2.58,4.65,4.65,0,0,1,1.45-3.42A6.94,6.94,0,0,1,25,16V13.33h2.4v2.61a10.48,10.48,0,0,1,4.87,1.47l-1.2,2.95a9.6,9.6,0,0,0-3.67-1.25v4.08a17.67,17.67,0,0,1,2.85.88,5,5,0,0,1,1.95,1.46A3.92,3.92,0,0,1,33,28.09,4.55,4.55,0,0,1,31.54,31.46Zm-7.87-9.52a3.69,3.69,0,0,0,1.32.65V19.18a2.65,2.65,0,0,0-1.34.69A1.53,1.53,0,0,0,23.22,21,1.22,1.22,0,0,0,23.67,21.94Zm5,7.47a1.4,1.4,0,0,0,.43-1,1.28,1.28,0,0,0-.44-1,4.06,4.06,0,0,0-1.29-.67V30A2.59,2.59,0,0,0,28.69,29.41Z"/></svg>