<svg id="Layer_1" data-name="Layer 1" xmlns="http://www.w3.org/2000/svg" width="52" height="52" viewBox="0 0 52 52"><defs><style>.cls-1,.cls-2,.cls-4{fill:none;}.cls-1,.cls-2{stroke:#000;stroke-width:3px;}.cls-1,.cls-3,.cls-4{stroke-linecap:round;}.cls-1,.cls-2,.cls-3{stroke-miterlimit:10;}.cls-3{fill:#fff;}.cls-3,.cls-4{stroke:#ff7313;stroke-width:2px;}.cls-4{stroke-linejoin:round;}</style></defs><line class="cls-1" x1="8.9" y1="21.5" x2="42.9" y2="21.5"/><line class="cls-1" x1="11.9" y1="8.5" x2="39.9" y2="8.5"/><line class="cls-1" x1="28.93" y1="30.79" x2="38.03" y2="21.7"/><line class="cls-1" x1="29.94" y1="15.64" x2="36.51" y2="9.07"/><line class="cls-1" x1="23.02" y1="30.79" x2="13.93" y2="21.7"/><line class="cls-1" x1="22.01" y1="15.64" x2="15.44" y2="9.07"/><rect class="cls-2" x="18.9" y="45.5" width="14" height="5" rx="1"/><path class="cls-2" d="M22.9,1.5h6a0,0,0,0,1,0,0V42.58A2.92,2.92,0,0,1,26,45.5h-.15a2.92,2.92,0,0,1-2.92-2.92V1.5a0,0,0,0,1,0,0Z" transform="translate(51.8 47) rotate(-180)"/><circle class="cls-3" cx="25.9" cy="30.5" r="10"/><polyline class="cls-4" points="26.03 25.39 21.4 30.53 30.4 30.53 25.51 35.93"/></svg>