<svg id="Layer_1" data-name="Layer 1" xmlns="http://www.w3.org/2000/svg" width="52" height="52" viewBox="0 0 52 52"><defs><style>.cls-1{fill:#ff7313;}.cls-2,.cls-3{fill:none;stroke-miterlimit:10;}.cls-2{stroke:#ff7313;stroke-linecap:round;stroke-width:2px;}.cls-3{stroke:#000;stroke-width:3px;}</style></defs><path d="M44,5a1,1,0,0,1,1,1V46a1,1,0,0,1-1,1H8a1,1,0,0,1-1-1V6A1,1,0,0,1,8,5H44m0-3H8A4,4,0,0,0,4,6V46a4,4,0,0,0,4,4H44a4,4,0,0,0,4-4V6a4,4,0,0,0-4-4Z"/><path class="cls-1" d="M26.5,14a2,2,0,1,1-2,2,2,2,0,0,1,2-2m0-2a4,4,0,1,0,4,4,4,4,0,0,0-4-4Z"/><line class="cls-2" x1="24" y1="29" x2="29" y2="29"/><path class="cls-3" d="M17.5,35.14V10.5a2,2,0,0,1,2-2h14a2,2,0,0,1,2,2V35.09a2.14,2.14,0,0,1-.16.79L33,41.29a2,2,0,0,1-1.84,1.21H21.51a2,2,0,0,1-1.87-1.3l-2-5.36A1.85,1.85,0,0,1,17.5,35.14Z"/><line class="cls-3" x1="35.5" y1="35.5" x2="17.5" y2="35.5"/></svg>