<svg id="Layer_1" data-name="Layer 1" xmlns="http://www.w3.org/2000/svg" width="128" height="128" viewBox="0 0 128 128"><defs><style>.cls-1,.cls-2,.cls-3{fill:none;stroke-linejoin:round;stroke-width:3px;}.cls-1,.cls-2{stroke:#000;}.cls-2,.cls-3{stroke-linecap:round;}.cls-3{stroke:#004b74;}.cls-4{fill:#ff7313;}</style></defs><polyline class="cls-1" points="19.79 56.21 64.94 75.41 64.94 124.55 19.79 105.35 19.79 80.02"/><polyline class="cls-1" points="110.08 56.21 64.94 75.41 64.94 124.55 110.08 105.35 110.08 79.2"/><polyline class="cls-2" points="91 50.69 110.08 56.16 64.94 75.41 19.79 56.16 38.88 50.69"/><polygon class="cls-1" points="64.94 75.41 81.03 94.3 120.85 73.6 110.08 56.16 64.94 75.41"/><polygon class="cls-1" points="64.94 75.41 52.6 95.5 7.15 74.05 19.79 56.16 64.94 75.41"/><line class="cls-3" x1="89.66" y1="32.04" x2="91.74" y2="29.88"/><line class="cls-3" x1="99.36" y1="21.94" x2="101.43" y2="19.78"/><line class="cls-3" x1="101.68" y1="31.8" x2="99.52" y2="29.72"/><line class="cls-3" x1="91.58" y1="22.1" x2="89.42" y2="20.02"/><line class="cls-3" x1="41.18" y1="16.84" x2="43.25" y2="14.68"/><line class="cls-3" x1="50.87" y1="6.74" x2="52.95" y2="4.58"/><line class="cls-3" x1="53.2" y1="16.6" x2="51.03" y2="14.52"/><line class="cls-3" x1="43.1" y1="6.9" x2="40.93" y2="4.82"/><line class="cls-3" x1="24.45" y1="44.89" x2="25.97" y2="43.32"/><line class="cls-3" x1="31.51" y1="37.55" x2="33.02" y2="35.97"/><line class="cls-3" x1="33.2" y1="44.72" x2="31.63" y2="43.2"/><line class="cls-3" x1="25.85" y1="37.66" x2="24.28" y2="36.15"/><polygon class="cls-4" points="65.05 39.25 70.31 18.96 54.41 45.51 63.18 45.51 57.81 65.47 73.82 39.25 65.05 39.25"/><path class="cls-4" d="M59.63,58.7l-.76,2.82c.39.11.77.22,1.17.3l1.65-2.71A15.64,15.64,0,0,1,59.63,58.7Z"/><path class="cls-4" d="M68.11,22.64l-1.62,2.7a19.79,19.79,0,0,1,2.06.43L69.28,23C68.89,22.84,68.5,22.73,68.11,22.64Z"/><path class="cls-4" d="M56.1,60.58l.77-2.87a17.05,17.05,0,0,1,6.31-32.53l1.75-2.92c-.31,0-.62-.05-.93-.05a20,20,0,0,0-7.9,38.37Z"/><path class="cls-4" d="M72.05,23.92,71.3,26.8A17.05,17.05,0,0,1,65,59.24l-1.79,2.94.75,0a20,20,0,0,0,8-38.29Z"/></svg>