<svg width="92" height="57" viewBox="0 0 92 57" fill="none" xmlns="http://www.w3.org/2000/svg">
<g clip-path="url(#clip0_781_6053)">
<path fill-rule="evenodd" clip-rule="evenodd" d="M0 57.1121C4.70107 47.5962 16.0307 40.2214 28.5825 35.4159C28.4415 35.749 24.9157 37.4618 19.0864 40.8875C40.7583 50.3558 64.1696 47.3583 80.1533 32.1329L81.4696 33.6079C64.9218 51.5929 38.6428 54.067 14.5263 43.7423C8.64997 47.8817 2.82064 53.5912 0 57.1121ZM83.256 28.9927C87.0639 24.7106 89.8845 20.8566 91.953 16.6221C92.047 16.3842 91.2478 18.7156 90.7777 19.7147C88.9443 23.6162 86.7818 27.1371 84.3372 30.2298L83.256 28.9927Z" fill="#FFED00"/>
<path fill-rule="evenodd" clip-rule="evenodd" d="M75.9694 22.6002L82.5509 16.2245H86.6408L78.2729 24.3606L86.6408 33.6386H82.8329L75.9694 26.0259V33.6386H73.0547V16.2245H75.9694V22.6002Z" fill="#48AC32"/>
<path fill-rule="evenodd" clip-rule="evenodd" d="M36.7624 24.8364C36.7624 22.2671 37.7496 20.126 39.583 18.3656C41.4635 16.5576 43.72 15.7012 46.3056 15.7012C48.8442 15.7012 51.0537 16.6052 52.9341 18.4132C54.7205 20.1736 55.7077 22.3147 55.7077 24.8364C55.7077 27.4533 54.8145 29.6895 52.9811 31.4975C51.1007 33.3531 48.8442 34.2095 46.2586 34.2095C43.673 34.2095 41.4165 33.3055 39.583 31.4499C37.7026 29.6419 36.7624 27.4057 36.7624 24.8364ZM52.652 24.9791C52.652 23.2187 52.0409 21.7437 50.7716 20.5543C49.4553 19.3172 47.9039 18.7462 46.1175 18.7462C44.3781 18.7462 42.8738 19.3648 41.6515 20.6018C40.4292 21.7913 39.7711 23.2663 39.7711 25.0267C39.7711 26.7871 40.4292 28.2145 41.6985 29.4516C43.0148 30.6886 44.6132 31.2596 46.3996 31.2596C48.139 31.2596 49.5963 30.6411 50.8186 29.404C51.9939 28.1194 52.652 26.692 52.652 24.9791Z" fill="#48AC32"/>
<path fill-rule="evenodd" clip-rule="evenodd" d="M61.7721 19.1745V22.6953H68.6827V25.6453H61.7721V30.7362H68.6827V33.6386H58.8574V16.2245H68.6827V19.1745H61.7721Z" fill="#48AC32"/>
<path fill-rule="evenodd" clip-rule="evenodd" d="M26.279 22.6002L32.8605 16.2245H36.9504L28.5825 24.3606L36.9504 33.6386H33.1426L26.279 26.0259V33.6386H23.3643V16.2245H26.279V22.6002Z" fill="#48AC32"/>
<path fill-rule="evenodd" clip-rule="evenodd" d="M8.17987 32.2112C7.70976 32.5918 7.23965 32.9249 6.76954 33.3055C11.6587 18.4608 23.4584 6.85142 38.4078 2.18864C53.4042 -2.47413 69.7169 0.38063 82.1748 9.84891V9.89649C81.5166 9.70617 80.8585 9.56344 80.2473 9.32554C59.2805 0.904002 27.5013 -3.04508 8.17987 32.2112Z" fill="#292E88"/>
</g>
<defs>
<clipPath id="clip0_781_6053">
<rect width="92" height="57" fill="white"/>
</clipPath>
</defs>
</svg>
