<svg width="96" height="60" viewBox="0 0 96 60" fill="none" xmlns="http://www.w3.org/2000/svg">
<g clip-path="url(#clip0_908_11349)">
<path fill-rule="evenodd" clip-rule="evenodd" d="M0 59.5952C4.90547 49.6656 16.7276 41.9702 29.8252 36.9558C29.6781 37.3033 25.999 39.0906 19.9162 42.6653C42.5304 52.5452 66.9596 49.4174 83.6382 33.53L85.0117 35.0691C67.7445 53.8361 40.3229 56.4178 15.1579 45.6441C9.02606 49.9635 2.94328 55.9213 0 59.5952ZM86.8758 30.2533C90.8493 25.785 93.7925 21.7635 95.9509 17.3448C96.0491 17.0966 95.2151 19.5293 94.7246 20.5719C92.8114 24.6431 90.5549 28.317 88.0041 31.5441L86.8758 30.2533Z" fill="white"/>
<path fill-rule="evenodd" clip-rule="evenodd" d="M79.2724 23.5828L86.14 16.9299H90.4078L81.6761 25.4197L90.4078 35.1011H86.4344L79.2724 27.1574V35.1011H76.231V16.9299H79.2724V23.5828Z" fill="white"/>
<path fill-rule="evenodd" clip-rule="evenodd" d="M38.3608 25.9162C38.3608 23.2352 39.3909 21.001 41.3041 19.1641C43.2662 17.2775 45.6209 16.3838 48.3189 16.3838C50.9678 16.3838 53.2734 17.3271 55.2356 19.2137C57.0997 21.0507 58.1298 23.2849 58.1298 25.9162C58.1298 28.6468 57.1978 30.9803 55.2846 32.8669C53.3225 34.8032 50.9678 35.6968 48.2698 35.6968C45.5718 35.6968 43.2172 34.7535 41.3041 32.8173C39.3419 30.9306 38.3608 28.5972 38.3608 25.9162ZM54.9413 26.0651C54.9413 24.2282 54.3036 22.6891 52.9791 21.4479C51.6055 20.157 49.9867 19.5613 48.1227 19.5613C46.3076 19.5613 44.7379 20.2067 43.4625 21.4975C42.187 22.7387 41.5003 24.2778 41.5003 26.1148C41.5003 27.9518 42.187 29.4412 43.5115 30.732C44.8851 32.0229 46.5529 32.6187 48.417 32.6187C50.232 32.6187 51.7527 31.9732 53.0281 30.6824C54.2545 29.3419 54.9413 27.8525 54.9413 26.0651Z" fill="white"/>
<path fill-rule="evenodd" clip-rule="evenodd" d="M64.4579 20.0081V23.6821H71.6689V26.7602H64.4579V32.0726H71.6689V35.1011H61.4165V16.9299H71.6689V20.0081H64.4579Z" fill="white"/>
<path fill-rule="evenodd" clip-rule="evenodd" d="M27.4216 23.5828L34.2892 16.9299H38.557L29.8253 25.4197L38.557 35.1011H34.5836L27.4216 27.1574V35.1011H24.3802V16.9299H27.4216V23.5828Z" fill="white"/>
<path fill-rule="evenodd" clip-rule="evenodd" d="M8.53551 33.6117C8.04497 34.0088 7.55442 34.3564 7.06387 34.7536C12.1656 19.2634 24.4783 7.14929 40.0777 2.28379C55.7261 -2.58171 72.7481 0.397169 85.7476 10.2771V10.3268C85.0608 10.1282 84.374 9.97923 83.7363 9.73099C61.858 0.943295 28.697 -3.17748 8.53551 33.6117Z" fill="white"/>
</g>
<defs>
<clipPath id="clip0_908_11349">
<rect width="96" height="59.4783" fill="white"/>
</clipPath>
</defs>
</svg>
