<svg width="48" height="48" viewBox="0 0 48 48" fill="none" xmlns="http://www.w3.org/2000/svg">
<rect width="48" height="48" rx="8" fill="#00B4FF"/>
<path d="M37 10C37.6 10 38 10.4 38 11V37C38 37.6 37.6 38 37 38H11C10.4 38 10 37.6 10 37V11C10 10.4 10.4 10 11 10H37ZM37 8H11C9.3 8 8 9.3 8 11V37C8 38.7 9.3 40 11 40H37C38.7 40 40 38.7 40 37V11C40 9.3 38.7 8 37 8Z" fill="white"/>
<path d="M24 14C29.5 14 34 18.5 34 24C34 29.5 29.5 34 24 34C18.5 34 14 29.5 14 24C14 18.5 18.5 14 24 14ZM24 12C17.4 12 12 17.4 12 24C12 30.6 17.4 36 24 36C30.6 36 36 30.6 36 24C36 17.4 30.6 12 24 12Z" fill="white"/>
<path d="M20.5 17.5H27.5" stroke="white" stroke-miterlimit="10" stroke-linecap="round"/>
<path d="M20.5 30.5H27.5" stroke="white" stroke-miterlimit="10" stroke-linecap="round"/>
<path d="M19.5 19.5H29.5" stroke="white" stroke-miterlimit="10" stroke-linecap="round"/>
<path d="M24.5002 23C24.8002 23 25.0002 23.2 25.0002 23.5V25.5C25.0002 25.8 24.8002 26 24.5002 26H23.5002C23.2002 26 23.0002 25.8 23.0002 25.5V23.5C23.0002 23.2 23.2002 23 23.5002 23H24.5002ZM24.5002 22.3H23.5002C22.8002 22.3 22.2002 22.9 22.2002 23.6V25.6C22.2002 26.3 22.8002 26.9 23.5002 26.9H24.5002C25.2002 26.9 25.8002 26.3 25.8002 25.6V23.6C25.8002 22.8 25.2002 22.3 24.5002 22.3Z" fill="white"/>
<path d="M18.5002 23C18.8002 23 19.0002 23.2 19.0002 23.5V25.5C19.0002 25.8 18.8002 26 18.5002 26H17.5002C17.2002 26 17.0002 25.8 17.0002 25.5V23.5C17.0002 23.2 17.2002 23 17.5002 23H18.5002ZM18.5002 22.3H17.5002C16.8002 22.3 16.2002 22.9 16.2002 23.6V25.6C16.2002 26.3 16.8002 26.9 17.5002 26.9H18.5002C19.2002 26.9 19.8002 26.3 19.8002 25.6V23.6C19.8002 22.8 19.2002 22.3 18.5002 22.3Z" fill="white"/>
<path d="M30.5002 23C30.8002 23 31.0002 23.2 31.0002 23.5V25.5C31.0002 25.8 30.8002 26 30.5002 26H29.5002C29.2002 26 29.0002 25.8 29.0002 25.5V23.5C29.0002 23.2 29.2002 23 29.5002 23H30.5002ZM30.5002 22.3H29.5002C28.8002 22.3 28.2002 22.9 28.2002 23.6V25.6C28.2002 26.3 28.8002 26.9 29.5002 26.9H30.5002C31.2002 26.9 31.8002 26.3 31.8002 25.6V23.6C31.8002 22.8 31.2002 22.3 30.5002 22.3Z" fill="white"/>
<rect width="48" height="48" rx="8" fill="#FF7313"/>
<path d="M20 25.3334C18.9391 25.3334 17.9217 24.9119 17.1716 24.1618C16.4214 23.4117 16 22.3942 16 21.3334C16 20.2725 16.4214 19.2551 17.1716 18.5049C17.9217 17.7548 18.9391 17.3334 20 17.3334C21.0609 17.3334 22.0783 17.7548 22.8284 18.5049C23.5786 19.2551 24 20.2725 24 21.3334C24 22.3942 23.5786 23.4117 22.8284 24.1618C22.0783 24.9119 21.0609 25.3334 20 25.3334Z" stroke="white" stroke-width="2" stroke-linecap="round"/>
<path d="M12 36V34.6667C12 33.2522 12.5619 31.8957 13.5621 30.8955C14.5623 29.8953 15.9188 29.3334 17.3333 29.3334H22.6667C24.0812 29.3334 25.4377 29.8953 26.4379 30.8955C27.4381 31.8957 28 33.2522 28 34.6667V36" stroke="white" stroke-width="2" stroke-linecap="round"/>
<path d="M32 12V20" stroke="white" stroke-width="2" stroke-linecap="round"/>
<path d="M28 16H36" stroke="white" stroke-width="2" stroke-linecap="round"/>
</svg>
